<svg xmlns:dc="http://purl.org/dc/elements/1.1/" xmlns:cc="http://creativecommons.org/ns#" xmlns:rdf="http://www.w3.org/1999/02/22-rdf-syntax-ns#" xmlns:svg="http://www.w3.org/2000/svg" xmlns="http://www.w3.org/2000/svg" xmlns:xlink="http://www.w3.org/1999/xlink" version="1.1" id="svg2" viewBox="0 0 800 450" width="800" height="450">
  <defs id="defs4">
    <linearGradient id="linearGradient967">
      <stop id="stop963" offset="0" style="stop-color:#c2c2c2;stop-opacity:1"/>
      <stop id="stop965" offset="1" style="stop-color:#9f9f9f;stop-opacity:1"/>
    </linearGradient>
    <linearGradient gradientTransform="translate(-45.254833,0.35355338)" gradientUnits="userSpaceOnUse" y2="108.77648" x2="658.45801" y1="6.5995569" x1="660.06653" id="linearGradient969" xlink:href="#linearGradient967"/>
  </defs>

  <!-- Background (now landscape) -->
  <rect id="rect1017" x="0" y="0" width="800" height="450" rx="10" ry="10" style="fill:#eeeeee;fill-opacity:1;stroke:none"/>

  <!-- Preserve original artwork, centered in landscape -->
  <g transform="translate(-160,40)">
    <!-- this group approximates the original portrait composition, scaled/positioned to be centered in 800x450 -->
    <g transform="translate(43.778173,70)">
      <rect style="fill:#9f9f9f;fill-opacity:1;stroke:none;stroke-width:2.2995;stroke-linecap:round;stroke-linejoin:round" width="82.489967" height="90.470001" x="398.75827" y="178.74706" ry="8.3970251" transform="rotate(-16.342822)"/>
      <g transform="rotate(16.320529,538.13563,-184.89727)">
        <rect ry="4.5961938" y="1.6498091" x="547.18585" height="115.96551" width="107.83378" style="fill:url(#linearGradient969);stroke:#ffffff;stroke-width:5.398;stroke-linecap:round;stroke-linejoin:round"/>
        <g style="stroke:#ffffff;stroke-width:13.0708;stroke-miterlimit:4;stroke-dasharray:none" transform="matrix(0.17265471,0,0,0.17265471,512.49324,-6.3296456)">
          <rect width="491.10556" height="449.99814" x="270" y="107.36227" style="fill:#cccccc;stroke:#ffffff;stroke-width:13.0708;stroke-linecap:round;stroke-linejoin:round"/>
          <rect width="491.10559" height="209.99976" x="270" y="107.36227" style="fill:#ffffff;stroke:#ffffff;stroke-width:13.0708;stroke-linecap:round;stroke-linejoin:round"/>
          <path d="m 300,317.36255 38.46147,-53.53818 60.53097,-45.16084 15.88277,18.57394 13.61285,-38.68356 8.20133,-2.98188 13.3106,-28.2093 180,179.99979" style="fill:#cccccc;stroke:#ffffff;stroke-width:13.0708;stroke-linecap:round;stroke-linejoin:round"/>
          <path d="m 180,60 c 4.09311,16.474688 7.71219,33.067277 10.85156,49.75 2.38256,12.66097 4.48857,25.37408 6.31641,38.12695 l -22.06445,-7.16015 -46.11133,-29.41602 5.32422,46.42578 -1.61524,24.78711 10.05274,30.37695 73.18554,-11.75585 L 300,180 252.19922,102.56641 242.5,117.5 215.375,95.375 Z" transform="translate(270,107.36227)" style="fill:#b3b3b3;stroke:#ffffff;stroke-width:13.0708;stroke-linecap:round;stroke-linejoin:round"/>
          <path d="m 419.99999,347.36252 81.89918,-74.42959 18.50574,-9.68009 23.6512,-44.18894 25.94388,-21.70121 179.99999,179.99979" style="fill:#cccccc;stroke:#ffffff;stroke-width:13.0708;stroke-linecap:round;stroke-linejoin:round"/>
          <path d="m 569.99999,197.36269 35.9388,80.91289 v 30.11038 30.11038 l 22.45864,19.46652 c 6.52453,-6.45031 14.14893,-11.78526 22.44431,-15.70477 14.8245,-7.00447 31.33823,-9.35959 47.17057,-13.6217 6.42776,-1.73037 12.90672,-3.85419 18.21343,-7.87277 1.35174,-1.02362 2.61592,-2.16281 3.77424,-3.40107 h -30 l -40.52149,-40.55006 -29.85645,-48.91972 -10.25307,8.83886 z" style="fill:#b3b3b3;stroke:#ffffff;stroke-width:13.0708;stroke-linecap:round;stroke-linejoin:round"/>
          <path d="m 419.99999,557.36227 c -0.41699,-9.60089 -8.81759,-17.60878 17.1252,-30.66806 31.8318,-16.02389 125.895,-35.88836 152.1537,-59.98434 19.42709,-17.82687 -70.4154,-37.66945 -55.0191,-59.07323 6.981,-9.70528 59.037,-19.96947 82.1463,-30.27386 21.90569,-9.76799 15.14129,-19.80328 31.4046,-29.97507 15.7092,-9.82558 68.3499,-19.77358 72.18929,-30.02516 -10.41359,10.52188 -68.83379,20.40327 -89.99999,30.00026 -22.3377,10.128 -21.4689,19.93018 -49.4313,29.48367 -30.1245,10.29239 -89.142,20.55268 -102.7077,30.51626 -28.4133,20.86858 46.863,42.59995 16.2024,59.99993 C 452.54309,490.92554 344.7219,510.65712 300,527.3626 c -30.9039,11.54369 -28.4079,17.74799 -30,29.99967" style="fill:#ffffff;stroke:#ffffff;stroke-width:13.0708;stroke-linecap:round;stroke-linejoin:round"/>
        </g>
      </g>
    </g>
  </g>

  <!-- Text: same style as original, single line, centered under artwork -->
  <text x="400" y="310" style="font-style:normal;font-weight:normal;font-size:32px;line-height:1.25;font-family:sans-serif;fill:#767676;fill-opacity:1;stroke:none" text-anchor="middle">
    <tspan style="font-weight:bold;font-size:32px;font-family:sans-serif">Image Not Available</tspan>
  </text>
</svg>
