<svg id="Clay_Bronze_and_Black_Shed" data-name="Clay, Bronze, and Black Shed" xmlns="http://www.w3.org/2000/svg" xmlns:xlink="http://www.w3.org/1999/xlink" width="3984" height="2999" viewBox="0 0 3984 2999">
  <defs>
    <style>
      .cls-1, .cls-10 {
        fill: #3e438c;
      }

      .cls-1, .cls-10, .cls-11, .cls-2, .cls-3, .cls-4, .cls-5, .cls-6, .cls-7, .cls-8, .cls-9 {
        fill-rule: evenodd;
      }

      .cls-1 {
        filter: url(#filter);
      }

      .cls-2 {
        fill: #fff;
      }

      .cls-3 {
        fill: #9d9585;
        stroke: #aaa190;
      }

      .cls-10, .cls-3, .cls-4, .cls-5, .cls-7, .cls-8 {
        stroke-width: 1px;
      }

      .cls-4 {
        stroke: #3b3b3b;
      }

      .cls-5, .cls-8 {
        fill: #423525;
      }

      .cls-10, .cls-5 {
        stroke: #3e438c;
      }

      .cls-7 {
        fill: #311e1b;
        stroke: #311e1b;
      }

      .cls-8 {
        stroke: #423525;
      }

      .cls-9 {
        fill: url(#linear-gradient);
      }

      .cls-11 {
        fill: url(#linear-gradient-2);
      }
    </style>
    <filter id="filter" x="219" y="2058.53" width="3520.03" height="884.47" filterUnits="userSpaceOnUse">
      <feOffset result="offset" dx="-21.213" dy="21.213" in="SourceAlpha"/>
      <feGaussianBlur result="blur"/>
      <feFlood result="flood" flood-color="#3e438c" flood-opacity="0.35"/>
      <feComposite result="composite" operator="in" in2="blur"/>
      <feBlend result="blend" in="SourceGraphic"/>
    </filter>
    <linearGradient id="linear-gradient" x1="1931.5" y1="2253.5" x2="1931.5" y2="1959" gradientUnits="userSpaceOnUse">
      <stop offset="0" stop-color="#f6c741"/>
      <stop offset="0.01" stop-color="#f6c741" stop-opacity="0"/>
      <stop offset="0.415" stop-color="#f6c43e" stop-opacity="0.749"/>
      <stop offset="0.604" stop-color="#f6c33c"/>
      <stop offset="1" stop-color="#ea8651"/>
    </linearGradient>
    <linearGradient id="linear-gradient-2" x1="1934.048" y1="1926" x2="1822.422" y2="1292.94" gradientUnits="userSpaceOnUse">
      <stop offset="0" stop-color="#f1b543"/>
      <stop offset="0.341" stop-color="#f1b543" stop-opacity="0.902"/>
      <stop offset="0.667" stop-color="#f1b543" stop-opacity="0"/>
      <stop offset="1" stop-color="#f1b543" stop-opacity="0"/>
    </linearGradient>
  </defs>
  <path id="COASTAL_SHEDS" data-name="COASTAL SHEDS" class="cls-1" d="M527.877,2385.64c-34.771-7.19-65.862-20.51-92.657-39.52-29.03-20.59-47.162-44.23-54.229-69.91-7.088-25.73-1.718-49.62,15.462-71.71,17.292-22.24,39.044-33.49,64.96-34.45,25.945-.96,52.512,8.61,80.488,28.44a275.748,275.748,0,0,1,37.55,31.97c11.536,11.77,20.619,23.26,27.214,34.58q26.64-40.785,53.281-81.56a569.457,569.457,0,0,0-77.424-66.37c-35.585-25.52-71.133-42.8-107.746-51.8-36.594-8.99-71.434-9.12-104.88.29-33.422,9.41-62.554,27.58-86.8,55.48-22.524,25.91-35.58,54.79-38.386,86.93-2.819,32.1,5.191,65.32,24.422,98.95,19.21,33.61,49.034,65.71,89.214,94.89,40.88,29.67,80.573,50.36,118.115,62.48ZM851.6,2481.52c-2.44-21.64-10.832-41.53-25.078-59.94s-32.942-33.81-56.3-46.58c-24.267-13.27-48.259-20.99-72.42-23.14s-46.412,1.51-66.9,11.22a116.237,116.237,0,0,0-49.718,44.65c-11.993,19.24-17.4,39.85-15.824,61.9,1.565,22.03,9.881,43.4,25.071,63.83,15.181,20.41,35.453,37.71,60.564,51.49,25.732,14.11,51.6,21.91,77.149,23.46s48.206-3.35,67.823-14.39,34.328-27.28,44.413-48.44c10.041-21.07,13.655-42.44,11.221-64.06h0ZM735.91,2530.94a47.687,47.687,0,0,1-26.543,9.16,54.08,54.08,0,0,1-28.05-7.03c-14.961-8.2-24.16-19.48-27.5-33.6s-0.194-29.42,9.266-45.89c9.679-16.84,21.378-27.44,34.973-31.95s27.784-2.63,42.758,5.57c13.7,7.49,21.911,18.14,24.745,32.15s-0.108,29.54-8.981,46.58q-8.5,16.32-20.673,25.01h0Zm371.39,248.21q-9.36-126.03-10.45-250.99-48.09-17.835-95.58-37.7-88.819,89.355-185.191,173.4,44.631,20.715,89.831,39.74,14.918-17.04,29.641-34.2,40.837,16.95,82.1,32.48-1.5,22.395-2.81,44.83Q1060.83,2763.78,1107.3,2779.15Zm-82.8-196.19q-2.4,33.15-4.34,66.41-25.875-9.93-51.585-20.42c30.709-36.35,47.425-57.3,51.115-62.24a95.156,95.156,0,0,0,7.3-10.95c0.6,0.25,1.21.48,1.82,0.72a164.973,164.973,0,0,0-4.31,26.48h0Zm335.48,151.52c-9.26-14.14-26.98-29.38-52.8-46.25-13.05-8.71-21.32-15.29-24.94-19.61s-4.77-8.83-3.46-13.53c1.37-4.92,5.2-8.01,11.48-9.33s13.88-.77,22.87,1.61c21.86,5.79,42.77,16.58,63.17,32.43q6.84-28.9,13.69-57.81c-10.86-5.35-19.3-9.32-25.4-11.84s-12.92-5.07-20.48-7.69-15.92-5.13-25.09-7.59c-32.51-8.73-60.1-9.81-83.37-2.74-23.25,7.06-38.47,21.1-45.31,42.63-9.77,30.64,4.89,60.08,45.51,86.85,12.58,8.13,21.15,14.04,25.61,17.86s7.58,7.45,9.37,10.91a14.419,14.419,0,0,1,1.2,10.69c-1.39,5.14-4.99,8.36-10.84,9.64s-13.44.62-22.75-2c-12.33-3.46-25.03-9.41-37.98-17.86a170.063,170.063,0,0,1-33.64-28.44l-19.23,61.02c22.23,15.64,48.54,27.86,78.63,36.3,25.95,7.27,48.99,10.4,68.87,9.62s36.29-5.67,49.13-14.46a57.8,57.8,0,0,0,24.4-35.93c3.58-15.55.61-30.35-8.64-44.48h0Zm293.46-14.61q3.39-27.3,6.76-54.6-116.46-14.37-231.59-39.65-5.925,26.865-11.85,53.72,37.98,8.355,76.14,15.54-16.56,87.645-33.12,175.3,44.175,8.31,88.57,15.17,13.665-88.14,27.34-176.28,38.8,6,77.75,10.8h0Zm308.03,197.68q-47.73-116.82-87.26-235.13-50.58-1.89-101.08-5.81-55.605,112.74-119.76,222.9,47.955,5.535,96.05,9.36,8.715-20.865,17.21-41.77,43.395,3.24,86.86,5.07,5.475,21.735,11.17,43.45,48.39,1.815,96.81,1.93h0ZM1823.3,2757.11q7.935,32.235,16.36,64.42-27.285-1.32-54.57-3.2c17.56-44.15,26.77-69.28,28.7-75.14a95.148,95.148,0,0,0,3.47-12.67c0.64,0.04,1.28.07,1.92,0.11a166.953,166.953,0,0,0,4.12,26.48h0Zm376.5,150.62q-2.34-27.405-4.67-54.81-49.83,4.215-99.76,6.59-4.245-89.085-8.49-178.18-40.755,1.935-81.55,2.54,1.755,116.685,3.51,233.38Q2104.42,2915.81,2199.8,2907.73Zm425.69-243.53c-21.91-12.24-55.43-20.07-100.23-24.94-22.75-2.7-37.83-5.92-45.4-9.24s-12.07-8.61-13.54-15.78q-2.3-11.25,8.45-20.2c7.14-5.99,17.23-10.39,30.33-13.31,31.84-7.11,65.87-7.12,103.02-.33q-11.505-43.065-22.99-86.11c-17.39.42-30.76,0.94-40.17,1.77s-19.75,2.09-31.05,3.75-23.56,3.94-36.78,6.83c-46.87,10.22-82.41,26.95-107.47,51.74-25.02,24.73-35.6,53.56-30.58,87.07,7.06,47.66,45.13,78.03,116.17,86.69,21.9,2.46,37.12,4.54,45.54,6.62s14.98,4.79,19.68,8.19a21.847,21.847,0,0,1,8.88,13.45q2.55,11.685-7.64,20.24c-6.82,5.69-17.27,10.01-31.32,12.81-18.6,3.71-39.37,4.29-62.08,1.58a240.449,240.449,0,0,1-63.07-16q7.26,47.43,14.52,94.85c39.94,6.42,83.28,5.25,129.11-3.95,39.52-7.93,72.33-19.73,98.13-34.62,25.82-14.91,44.04-32.96,54.69-53.65,10.67-20.7,12.67-42.31,6.46-64.74C2661.77,2693.85,2647.39,2676.42,2625.49,2664.2Zm395.35,43.02q-44.925-107.73-89.84-215.45-38.28,15.96-76.97,30.59,15.3,40.425,30.61,80.84-45.945,17.385-92.39,32.96-13.77-40.965-27.53-81.94-39.09,13.125-78.52,24.91,33.51,111.795,67.01,223.6,43.1-12.885,85.85-27.23-13.875-41.265-27.74-82.55,47.52-15.945,94.53-33.73l30.84,81.45Q2978.99,2724.665,3020.84,2707.22Zm241.9-115.13q-13.02-24.24-26.04-48.47-45.21,24.315-91.13,46.78-7.545-15.42-15.09-30.85,39.72-19.44,78.93-40.29-12.9-24.3-25.81-48.59-38.385,20.415-77.29,39.45-7.47-15.285-14.95-30.57,40.875-20,81.18-41.54-12.96-24.255-25.92-48.53-76.38,40.83-154.85,76,47.76,106.5,95.51,213,88.905-39.87,175.46-86.39h0Zm34.24-289.87q-49.245,30.93-99.56,59.34l114.69,203.31q56.2-31.755,111.2-66.35c26.81-16.88,47.62-36.45,62.21-58.18,14.61-21.74,21.88-43.91,21.97-66.19,0.09-22.3-6.92-43.02-20.65-62.28-44.6-61.76-106.64-62.27-189.86-9.65h0Zm121.84,113.27c-4.5,16.72-15.99,30.99-34.38,42.45q-10.755,6.72-21.57,13.31l-64.2-105.36q9.45-5.775,18.88-11.64c12.11-7.54,23.91-12.08,35.51-13.6s22.28-.08,32.08,4.39a56.756,56.756,0,0,1,24.15,20.93C3420.06,2382.26,3423.32,2398.77,3418.82,2415.49Zm263.99-248.05c-17.43-.29-41.08,5.94-71.07,17.94-15.29,5.96-25.84,9.1-31.64,9.65s-10.21-1.11-13.25-4.93q-4.77-5.985-.51-15.02c2.83-6.03,8.03-12.11,15.6-18.3,18.41-15.06,40.36-26.5,66.21-34.68q-19.455-22.455-38.89-44.9c-11.22,6.12-19.78,10.98-25.67,14.68s-12.26,8-19.13,12.87-14.18,10.45-21.92,16.74c-27.45,22.3-45.46,44.72-54.08,68.23-8.62,23.47-6.51,44.27,6.88,62.45,19.05,25.9,52.15,30.87,99.33,12.4,14.48-5.82,24.67-9.6,30.58-11.14s10.84-2.06,14.79-1.56a14.021,14.021,0,0,1,9.52,5.17q5.025,6.2,1.14,14.67c-2.59,5.65-7.86,11.66-15.8,17.95-10.52,8.33-23.29,15.51-38.24,21.43a179.842,179.842,0,0,1-44.1,11.53q19.02,25.71,38.06,51.41c26.53-9.41,52.84-24.27,78.5-44.62,22.12-17.55,39.08-35.15,50.89-52.38,11.81-17.25,18.09-33.96,18.94-49.91s-3.94-29.74-14.17-41.4C3714.26,2173.72,3700.23,2167.73,3682.81,2167.44Z"/>
  <path id="Oval_Background" data-name="Oval Background" class="cls-2" d="M1978,343c456.83-3.346,795.05,96.515,1072,271,129.71,81.719,249.32,185.511,331,315,47.24,74.89,83.34,155.44,108,254,61.61,246.26-66.71,478.87-148,592a843.4,843.4,0,0,1-106,121q-424.68-65.13-855-39c-256.66,16.02-462.43,59.22-716,102-209.51,35.35-417.07,64.54-632,89-34.759-30.11-69.667-60-104-89-43.174-36.47-84.249-65.85-119-109-21.433-26.61-47.158-50.38-68-78-63.131-83.66-112.154-178.83-142-296-6.487-25.46-7.234-50.03-12-78-7.561-44.37-8-110.21,0-155,6.931-38.78,12.124-76.11,23-111,27.839-89.3,68.16-166.507,117-235,185.263-259.816,486.01-411.612,841-502,84.27-21.458,173.53-27.356,266-43Zm680,1590c167.2-1.35,333.57,5.31,500,20a505.43,505.43,0,0,1-44,41c-27.61,22.82-56.68,39.06-87,58-87.15,54.44-184.37,97.25-286,137-358.32,140.13-903.31,155.35-1293,33-65.03-20.42-138.34-44.83-204-75-22.88-10.51-44.89-21.35-67-33,110.18-12.17,216.71-26.25,325-43,216.52-33.48,408.95-80.97,629-107C2294.2,1944.69,2470.52,1934.51,2658,1933Z"/>
  <path id="Siding" class="cls-3" d="M3382,1600Q3354,1665,3326,1730l-80,95-78,56-201-21V1290l-477-3-3,536-171,6V1274l-16-5,116-212,299-97,331,80,124,235,216,48Q3384.005,1461.5,3382,1600Z"/>
  <path id="Loft_Window" data-name="Loft Window" class="cls-4" d="M2598,1043h255l1,181H2598V1043Zm23,22v40q20.505-19.995,41-40h-41Zm169,0h41v42Zm41,106v31h-30Zm-181,30h-29v-28Zm-29-72v20l52,52h104l54-53v-18l-65-64-82-1Z"/>
  <path id="Garage_Door" data-name="Garage Door" class="cls-5" d="M2482,1286l2,539,479,32,5-577Z"/>
  <path id="Wood_Trim" data-name="Wood Trim" class="cls-6" d="M2314,1276h-17q6.495-11.505,13-23h850l14,17h-14v601h-28V1276H2990v566h-26V1292H2494v530h-37q0.495-273,1-546H2344v546h-30V1276Z"/>
  <path id="Garage_Door_Trim" data-name="Garage Door Trim" class="cls-7" d="M2495,1293v16h452l1,530h15V1293H2495Z"/>
  <path id="Side_Soffit" data-name="Side Soffit" class="cls-6" d="M3160,1268v39q118.995,19.005,238,38,1.995-17.505,4-35Z"/>
  <path id="Roof_Metal" data-name="Roof Metal" class="cls-8" d="M3413,1311q-117.495-20.505-235-41Q3111,1151.005,3044,1032q132.495,54,265,108Q3361.005,1225.5,3413,1311Z"/>
  <path id="Right_Half_of_Gable_Trim" data-name="Right Half of Gable Trim" class="cls-6" d="M2715,966q160.5,40,321,80l132,234q7.995-4.005,16-8l-133-238q-168-42.5-336-85v17Z"/>
  <path id="Left_Half_of_Gable_Trim" data-name="Left Half of Gable Trim" class="cls-6" d="M2288,1273l13,7,120-217q147-48.495,294-97V949q-152.505,50-305,100Zm0,0,13,7,120-217q147-48.495,294-97V949q-152.505,50-305,100Zm0,0,13,7,120-217q147-48.495,294-97V949q-152.505,50-305,100Z"/>
  <path id="Under_Gable_Trim_Accent" data-name="Under Gable Trim Accent" class="cls-6" d="M2341,1228q43.995-77.505,88-155l291-97,314,80q52.995,92.505,106,185-61.5-82.995-123-166l-297-79-282,88Q2389.505,1156,2341,1228Z"/>
  <path id="Reflection" class="cls-9" d="M2210,1959c6.2,0.9,56.89,16.6,58,19-15.28,1.06-39.02,9.71-51,17v1q54.495-.495,109-1v1q-16.005,6-32,12-42,1.005-84,2c-10.56,0-39.47-3.7-44,3q52.5,7.005,105,14v2c-11.4.69-34.74,1.76-42,8h2q57,5.505,114,11v1q-8.505,1.995-17,4v1q16.005,3.495,32,7v1l-125,6c0.33,0.67.67,1.33,1,2q37.5,3.495,75,7v1l-60,3c0.67,1,1.33,2,2,3,23.06,0.97,56.26,4.88,79,10q10.995,0.495,22,1v1q-33.99,6-68,12c0.33,0.67.67,1.33,1,2l65,9c-0.67.33-1.33,0.67-2,1q-59.49,13.005-119,26,47.49-1.005,95-2c-1.02,6.97-3.86,8.28-6,14,11.24,0.69,52.17,4.78,59,10-11.87.91-38.5,3.45-47,10h3q13.995,4.995,28,10v2q-30.99,4.005-62,8c0.33,0.67.67,1.33,1,2q13.995,0.495,28,1h-2l-60,15c17.97,0.75,72.47,6.85,83,15l-45,15q-66.99,1.995-134,4c-28.34,4.44-79.38,4.86-109,0h-61q-68.49-4.005-137-8l-64-3q-48.99-8.505-98-17-23.505-3.495-47-7-13.5-11.505-27-23c-15.13-6.85-51.7,4.49-64-8q13.995-2.505,28-5c-29.71-13.21-82.96.4-109-16v-1c20.04,0.29,78.21-.95,93-7-17.88-3.06-47.24,1.94-63-7q57.495-.495,115-1c-2.33-.67-4.67-1.33-7-2v-1c1.33-2.33,2.67-4.67,4-7l-1-1c-15.26-.18-100.16-19.99-108-26,34.13,0.27,72.5,3.13,102-4q16.995-.495,34-1l-67-9q-6.495-13.5-13-27,66.99-13.005,134-26c117.4-27.32,243.68-40.24,363-66Z"/>
  <path id="Blue_Wave_Swash" data-name="Blue Wave Swash" class="cls-10" d="M672,2046c-1.722,5.61,65.2,34.74,142,55,79.864,21.06,150.807,27.48,212,28,134.96,1.15,274.37-12.49,361-28,106.81-19.12,207.27-31.42,314-51,98.04-17.99,270.1-54.11,365-68,135.58-19.85,311.04-31.13,485-36,136.99-3.84,268.91-3.01,393,3,208.78,10.12,415.95,40.86,417,34,0.94-6.14-131.04-34.87-265-51-77.32-9.31-152.34-14.28-231-16-251.41-5.48-497.26.74-692,24-154.36,18.43-301.86,51.69-461,80-149.35,26.57-296.85,49.48-450,70a1435.656,1435.656,0,0,1-292,6C814.959,2083.33,674.279,2038.57,672,2046Z"/>
  <path class="cls-10" d="M1977,277c455.37-3.223,804.69,91.309,1083,265,159.15,99.324,295.87,217.88,394,378,47.45,77.416,81.2,164.62,104,267,51.92,233.14-44.3,451.8-136,591a868.939,868.939,0,0,1-105,130,850.255,850.255,0,0,0-83-24c-20.3-4.77-40.4-8.72-61-12,93.87-96.13,184.05-216.63,227-337,13.31-37.3,21.48-75.26,29-111,7.99-37.94,12.95-92.27,6-134-5.99-35.95-4.96-67.16-13-99-31.12-123.3-86.72-213.329-154-299-163.35-208-415.9-329.34-702-415-71.61-21.439-146.1-29.814-225-45-179.16-34.48-458.93-30.234-634,5-79.14,15.927-156.39,29.336-229,52-302.11,94.294-565.932,241.571-719,485-65.131,103.58-138.371,271.97-101,450,12.163,57.94,26.892,109.65,48,158,35.578,81.49,120.5,206.59,257,320a1159.84,1159.84,0,0,0,134,96c-37.68,3.68-75.14,5.67-113,6-37.827.33-75.292-.99-113-4-16.409-14.06-32.148-28.16-48-43-36.255-33.95-71.681-68.12-97-100-93.121-117.25-159.082-223.47-197-399-11.517-53.31-20.754-134.94-10-199,6.081-36.22,8.486-71.59,17-105,19.822-77.79,47.286-150.07,84-212,186.714-314.966,511.61-504.049,911-606,94.89-24.222,194.99-32.235,300-50ZM3060,1948c29.97,2.46,59.14,5.41,89,9,33.37,4.01,65.82,8.6,99,14a357.838,357.838,0,0,1-34.26,31.72c-11.53,9.36-23.5,16.56-33.74,24.28-61.43,46.3-126.01,84.77-195,125-152.14,88.73-333.62,141.47-531,185-57.43,12.67-117.8,15.65-178,26-72.02,12.38-150.08,10.99-230,11-40.1,0-82.48,2.84-119-3q-24-1.005-48-2l-163-18c-148.85-29.6-285.81-57.21-411-107-64.35-25.59-126.05-52.01-184-82-22.49-11.64-44.13-23.44-66-36,57.18-1.72,113.03-5,170-10,32.31-2.83,63.8-6.11,96-10,19.56,8.56,38.94,16.44,59,24,36.53,13.76,76.75,25.28,119,38,91.63,27.58,189.49,39.64,292,58q78.99,6.495,158,13,37.5,0.495,75,1,42.99-.495,86-1,24-.495,48-1,55.5-4.995,111-10c59.73-10.51,116.14-12.63,172-25,138.59-30.68,264.02-69.21,380-120a1337.4,1337.4,0,0,0,173-91C3016.64,1977.87,3038.33,1963.41,3060,1948Z"/>
  <path id="Trees" class="cls-6" d="M1945,79c-0.24,5.276-.1,9.353,2,12l18-2c-0.33,2.666-.67,5.334-1,8q10.995,5,22,10c-0.67.333-1.33,0.667-2,1l-9,6c0.67,3,1.33,6,2,9,7.07,0.085,16.9,2.641,19,8l-19,3v1l6,7v1h-23c0.67,1,1.33,2,2,3q14.505,8,29,16c-9.48-.341-24.65-0.438-30,4h2q6.495,4.5,13,9c-18.17,10.239-35.42,9.481-46,27,2.67,1,5.33,2,8,3h-2q-13.5,12.5-27,25c0.67,1,1.33,2,2,3l21-3-12,13c0.67,1,1.33,2,2,3l12,3q10.005-9,20-18-1.995,10-4,20l61-47c11.09-5.733,23.41-1.122,37-7,7.53,10.2,16.58,5.519,29,3,0.33,0.333.67,0.667,1,1-0.33,2-.67,4-1,6l29-3c3.72,5.318,31.65,26.972,37,29l23,4q-10.005,4-20,8l3,4q13.005,7.5,26,15c-47.41-.422-82.33-12.445-117,4v5h2c17.13,6.627,31.2,2.533,39,18l-84,5c0.33,0.667.67,1.333,1,2,5.65,1.994,11.56,5.667,15,10l-31,2c0.33,0.666.67,1.333,1,2q30,11,60,22l18-8q-3.495,7-7,14h1c6.65-6.979,20.05-6.166,30-10,43.45-16.754,93.57-15.363,138,0,24.04,8.311,51.52,5.773,66,23-14.72-.463-26.15-5.207-38-7-0.67.666-1.33,1.333-2,2,0.33,2,.67,4,1,6,6.75,9.81,28.41,21.527,40,26v2l-14-1c0.67,2.333,1.33,4.667,2,7h-5l-22-7q10.005,11,20,22v1h-4c-16.83-9.744-61.19-31.49-88-29-27.44,2.548-55.43,27.938-86,35q0.495,6.5,1,13,16.005,5.5,32,11v1l-17,1v1c19.22,2.838,32.75.066,55,5-0.33.667-.67,1.333-1,2l-85,10c0.67,0.333,1.33.667,2,1,13.06,14.356,70.66,7.167,94,14q13.995,6,28,12v1l-63-2c-0.33,1-.67,2-1,3,5.5,8.465,16.09,12.14,21,21l-27-9v1c0.33,0.667.67,1.333,1,2l24,19c-32.48-7.2-59.24-29.41-98-32,6.65,11.156,21.37,14.3,26,26l-43-6c2.12,7.192,9.96,13.616,16,17-0.33.667-.67,1.333-1,2h-1c-15.95-2.306-32.06-9.942-49-7l-3,3h2c5.16,5.677,35.02,32.867,41,35,24.89,8.874,54.18,5.748,78,14,85.11,29.482,169.07,32.244,216,102,8.7,12.927,20.76,23.781,23,43h-1c-6.06-5.921-14.16-21.642-21-20q5.505,16,11,32l-9-3v17q-6.495-9.5-13-19h-1q-7.005,12.5-14,25c-0.67-.333-1.33-0.667-2-1q-14.505-33.5-29-67l-4,1v8c1.56,2.943,2.83,7.053,1,11-0.33-.667-0.67-1.333-1-2q-10.005-13.5-20-27h-2q-1.995,10-4,20c2.81,13.478,9.24,27.71,12,40h-1c-29.89-24.336-56.35-54.424-87-77h-1v9q-7.995-4.5-16-9c1.59,7.473,8.62,17.057,0,19-8.7-5.156-14.94-12.234-22-19q-12.495,4-25,8c2.04,5.947,6.72,6.585,11,10v1q-7.995,2.5-16,5c-0.39,10.819.92,35.055,9,38q25.995,14.5,52,29,33.99,22.5,68,45c35.34,20.18,73.56,37.807,89,78q-12.495-6.5-25-13c0.33,3,.67,6,1,9l-8-1v4c10.24,23.953,52.08,35.842,77,45v1l-36,4c6.59,11.921,20.56,14.388,28,25-0.33.667-.67,1.333-1,2l-19,3q-7.995-6.5-16-13l3,16c-1.33-1-2.67-2-4-3-4.56-12.807-7.42-20.91-23-18-2.79,8.174-2.71,7.932-1,15,8.78,7.61,11.75,26.813,9,39-1.33.667-2.67,1.333-4,2q-4.995-4.5-10-9l-4,1c-0.67,3-1.33,6-2,9-0.67-.333-1.33-0.667-2-1q-5.505-11.5-11-23,2.505-4.5,5-9-1.995-4.5-4-9h-2c0.13,7.15-.4,8.463-6,10-2.76-6.383-11.45-19.342-18-22-1.29,17.79-6.65,40.576-18,49h-1v-2c-1.91-7.429,3.88-19.152,2-30-0.67-.333-1.33-0.667-2-1h-1l-6,15h-1q-7.5-29-15-58l-3,2q-2.505,7.5-5,15-5.505-5-11-10-0.495,6.5-1,13h-5c0.45-12.379-1.4-25.124-7-32l-6,3c-1.76-21.993,15.28-39.978,5-62-0.67.333-1.33,0.667-2,1q-2.505,22.5-5,45c-0.67-.667-1.33-1.334-2-2-9.15-5.1-6.53-19.545-16-24-1.72,5.1-5.12,12.815-10,15-2.46-24.446-29.84-25-36-47-2.33,1-4.67,2-7,3q-7.005-19-14-38c-12.11-2.638-15.67-8.937-27-3-4.21-4.21-8.45-9.208-15-11-1.5,4.974-2.6,10.705-7,13-0.59-8.49-4.28-24.292-7-27-2.49-2.306-3.86-1.294-7-2-1.74-6.784-4.15-11.548-8-16l-10,1q-6.495,10-13,20c33.02,30.278,43.47,45.774,67,86-5.09-1.152-5.31-2.206-8-1,3.43,10.009,6.1,19,11,27-16.2-9.018-22.25-38.469-48-34v7c11.99,27.6,49.87,36.632,55,69l-13-1v8c16.96,41.362,33.5,84.63,59,118,18.03,23.59,56.17,58.72,63,90h-1c-25.3-26.61-47.66-55.4-75-80-8.64.7-8.03,3.75-16,5v7c12.67,9.15,24.82,18.37,31,34h-1q-12-7.005-24-14v1q18,29.49,36,59v1h-1c-13.02-7.29-18.32-21.56-30-30v2c-7.61,15.49,17.44,55.53,23,70-2-.67-4-1.33-6-2q0.495,13.995,1,28c-0.67-.33-1.33-0.67-2-1-10.2-19.23-26.14-35.69-28-64-1,.33-2,0.67-3,1-1.61,19.7,5.7,30.11,7,49-2.67-.33-5.33-0.67-8-1q-1.5,10.995-3,22c-3.59-.98-2.81-1.27-6-1q-0.495,16.5-1,33h-1c0.42-29.21-9.24-47.78-14-70-7.23.77-7.85,3.23-10-4-12.33-10.87-17.12-42.67-19-63-0.33.67-.67,1.33-1,2q-3,19.005-6,38,2.505,4.5,5,9c-8.26,29.14.12,115.7,12,134q-12,6.495-24,13-2.505-5.505-5-11c-7.91,5.24-12.02,9.81-15,20h-1c0.6-11.79.3-20.12-6-25h-1q-4.5,7.995-9,16h-1c-1-.33-2-0.67-3-1,0.92-28.98-2.45-60.03-22-68-1.35,12.7,7.23,65.32-3,71q-1.995-19.995-4-40-7.005-2.505-14-5l3,33h-1q-6.495-16.5-13-33c-1,.67-2,1.33-3,2q-1.995,6-4,12-4.5-26.505-9-53h-1q-4.995,4.005-10,8-6-30.495-12-61c-9.17-38.91-12.56-74.07-25-108q-5.505-24-11-48c-11.58-25.816-23.44-51.968-33-80-15.97.467-24.13-2.4-34-7v4c10.04,11.718,24.48,24.39,28,39h-3q-12.495-4.5-25-9,13.005,19.5,26,39c-2.97,4.38-.84,2.41-1,7-12.64-.13-16.82-5.68-26-9q8.505,14,17,28c-2.33-.33-4.67-0.67-7-1q1.5,4.995,3,10-12-6.495-24-13c0.67,1.33,1.33,2.67,2,4,4.59,12.68,21.69,32.09,32,40-3.29,4.78-3.3,9.34-6,16-2.33-.33-4.67-0.67-7-1q7.005,15,14,30l-38-41-2,2,28,59c-2.33-.33-4.67-0.67-7-1v1c3.61,15.98,13.61,25.81,18,39q-1.5,6.495-3,13c3.26,26.33,10.43,54.15,11,84l-10-7h-1l3,30c-1-.33-2-0.67-3-1q-10.995-10.005-22-20-0.495,9.495-1,19c-1.19-13.15-19.7-63.27-28-63v8c5.19,10.77,13.62,65.53,7,82h-1q-3.495-21-7-42c-3,.67-6,1.33-9,2-3.39-16.58-23.03-113.73-30-120,0.3,8.01.84,19.06-2,24q-4.995-5.505-10-11c-3.7,12.46-13.11,21.77-23,28,1.01-18.13,5.75-27.96,3-46h-2q-3.495,12-7,24c-1-.67-2-1.33-3-2q-10.995-19.5-22-39h-6c-14.47,11.27-18.67,36.54-28,53l-64,119c-38.88,66.3-62.34,143.38-100,213-44.93,83.05-89.94,164.17-131,249q-27.495,76.995-55,154c-5.5,21.32,11.57,43.87,18,56q-86.985,9-174,18-13.005-86.49-26-173c-2.72-17.96,1.63-39.08,4-54q4.5-45.495,9-91c9.76-47.93-3.71-100.58-11-140-6.3-34.04.6-113.7-17-134q-22.5,15.495-45,31,3.495-13.995,7-28c-28.02,11.13-7.69,28.23-17,54q-6-14.505-12-29-1-10.005-2-20h-1l-13,3c0.689-6.28,2.169-10.19,5-14-1.333.67-2.667,1.33-4,2-28.208,15.54-40.994,55.4-69,71-6.4,1.43-6.017-4.15-11,0q-11,8.505-22,17,18.5-28.5,37-57v-1h-6q-23.5,17.505-47,35v-3q5-7.005,10-14c-8.386.93-21.2,4.65-28,2,0.666-.67,1.333-1.33,2-2q5-7.995,10-16v-3h-1c-3.333.33-6.667,0.67-10,1v-1c14.378-29.33,31.189-52.45,53-74,6.59-6.51,18.627-8.35,22-18-4.735.06-6.662-.13-9-2,18.347-4.74,32.721-23.11,48-32v-1q-21,4.005-42,8c0.333-.67.667-1.33,1-2,4.876-2.29,11.845-6.92,14-12h-8q1.5-9.495,3-19c17.861-.97,42.487-8.76,51-20-10.105.51-22.406,5.42-31,2l4-6q-4.5-2.505-9-5l37-15v-1l-40,3q0.5-1.5,1-3c8.12-3.31,5.528-6.13,9-11l26-12v-2c-6.156-6.69-15.906-4.89-25-9v-1c15.039-4.73,27.447-13.71,45-17-4.82-4.68-39.821-12.68-43-10q-12,11.505-24,23c-16.958,13.47-34.768,26.83-49,43q-12,16.995-24,34c-9.087,9.46-20.183,17.26-28,28q-21.5,27.99-43,56c-7.221,5-17.262.46-22,2q-10,12.495-20,25c-0.667-2.33-1.333-4.67-2-7q-13,7.995-26,16v-1l7-18-4-6c-1,.33-2,0.67-3,1q-12.5,13.995-25,28h-1c4.669-25.33,28.066-30.3,29-56h-1c-6.686,4.31-16.651,5.51-24,10-10.488,6.41-12.6,22.4-22,30l-8-6c0.666-2.67,1.333-5.33,2-8h-8l-9,12h-1q-4-10.5-8-21c-0.667.33-1.334,0.67-2,1-1.816,4.62-4.683,8.78-9,11q-2-4.005-4-8c-4.177,2.36-7.221,4.86-11,5,0.7-5.03,2.219-10.74-1-14q-6-3.495-12-7v-1q10.5-1.005,21-2c3.135-9.8,10.931-19.98,19-25v-1q-9-1.995-18-4c0.333-.67.667-1.33,1-2,10.013,0.31,16.251.41,23-3q13-21,26-42c7.869-18.32,7.462-37.43,16-55-17.812,4.6-10.071,20.2-16,37v-2l-7-9c-1,.67-2,1.33-3,2q-4.5,6.495-9,13c-0.076-5.94-.551-7.57-4-10q-1.5,5.505-3,11-5-1.995-10-4-23.5,30.99-47,62c4.708-22.42,10.222-32.93,11-58h-1l-8,3c-2.8-2.47-6.863-5.95-9-9-6.748,1.55-13.8,7.13-19,11-0.667-.33-1.334-0.67-2-1v-5c3.769-7.24,8.395-10.48,9-21q-24,16.995-48,34c-0.333-.67-0.667-1.33-1-2q-0.5-1.5-1-3c26.68-26.05,73.037-45.87,95-72-0.334-.67-0.667-1.33-1-2-21.215-.15-38.272,16.93-51,8,1-.33,2-0.67,3-1,14.752-18.1,45.153-22.83,65-36-0.333-.67-0.667-1.33-1-2-22.308-.42-30.573,9.08-47,14v-1c0.666-.33,1.333-0.67,2-1,10.011-18.93,38.581-21.31,53-36-0.333-.67-0.667-1.33-1-2-41.213-.8-75.543,21.54-112,31v-1c20.635-24.29,54.829-28.66,85-44,30.351-15.43,62.215-31.78,86-54,7.895-7.37,22.348-15.02,26-26q-7-4.005-14-8v-1c22.771-8.32,56.809-18.9,76-32v-1c-14.611-13.637-35.861-.938-53,3l7-7c2.859-4.68,6.217-5.867,8-12-4.829.212-7.774,0.246-10-2,29.236-9.491,52.581-29.973,87-38q0.5-1,1-2c-1.231-12.66-4.76-25.094-16-28-5.063,5.953-13.116,3.6-20,8l-12,17h-1c-0.974-7.533-.677-11.038-10-11a39.473,39.473,0,0,0-15,16l-2-1v-1c1.259-4.394,2.994-12.143,1-19-22.378,14.162-32.255,1.519-43,34l-2-1c-1.119-6.353-2.038-12.657-6-14-14.727,23.943-58.1,13.354-78,22-9.217,19.934-27.809,40.007-51,47,1.441-13.211,10.951-33.08,6-46l-2,2c-14.668,5.18-20.7,21.248-31,31h-1c-0.09-5.214-.3-10.9-4-13l-10,12-2-1q-2-15.5-4-31c-13.021.252-15.389,3.248-25,0-1.545,5.227-4.736,5.893-11,6l1,2,9,2h-2c-3.6,5.044-13.549,10.1-20,12l-4-8H466c-0.084-5.3.525-8.021,2-11l16-7c-5.755-.845-4.983-1.46-6-4,6.751-2.621,9.266-6.372,13-12-0.713-10.066-3.368-10.142-10-14l-19,6q1-3.5,2-7H450l-10-1q-1-4-2-8l3-2c3.719-3.32,13.38-3.855,19-5q0.5-1,1-2l-10-8,1-3c12.373-8.715,34.346-4.319,50-5l7-8-9-2h2l17-12H492l1-3c14.041-3.7,27.829-12.113,44-16h54l72-10,71-1,14-28-15-12c2.17-2.664,2.008-2.795,6-4q-0.5-3.5-1-7l-6-10c-13.691.517-17.669,3.705-29,1v-4c1.869-3.56,2.794-6.205,3-12h-8v-1q1-5,2-10c-27.772,12.527-66.757,22.032-103,25v-1q4.5-11.5,9-23h-8q0.5-1.5,1-3c4.124-3.7,8.424-8.852,10-15h-1l-30,16v-1c2.867-5.919,5.841-11.114,5-18h-3c-7.5,12.475-31.571,33.883-45,40-2.845-9.042-7.18-19.227-14-24l-13,6q2.5-6,5-12l-10-4,21-21c-2.267-1.363-1.976-1.452-6-2l-12,5c8.153-24.435,79.719-42.473,118-35,68.5,13.373,146.7,33.094,214,48,16.063,3.557,34.343-5.939,48-8-13.809-11.547-46.556-17.189-65-22q-0.5-1-1-2,0.5-1,1-2c10.4,0.325,24.965,4.884,30,0v-1l-39-18v-1l29-2v-1l-3-2c-4.952-9.718-18.931-6.677-30-10v-1l3-4q-0.5-1-1-2c-13.957.381-31.084,0.977-40-4l-6-14,11-4-17-17v-3l3-1c22.524,7.39,45.294,18.963,72,20v-2l-58-36v-1c20.526-1.84,36.752,2.339,54,9V592c4.03-.4,3.911-0.327,6-2-13.863-10.869-24.1-19.894-31-38l8-3-17-13,9-2c-15.312-12.9-50.965-14.333-68-27l44,6c-6.131-20.251-46.838-14.482-67-9v-1l6-10-20-10c17.315-18.921,52.636-16.417,76-6,27.114,12.09,51.6,21.643,73,39,16.612,13.474,26.544,35.777,56,36-1.705,3.456-3.6,6.916-2,11,1.334,3.113,1.377,3.253,4,5,10.166,6.734,26.1,6.707,41,6v-3c-7.325-9.676-21.455-9.638-31-17l36,2-21-35c-12.627-10.347-29.737-14.283-39-28l23,1-4-5-34-26-23-7-19-13v-4l6-7-6-12c12.619,1.217,22.238,5.441,36,2,5.913-1.479,7.541-5.883,16-7,22.654,15.244,62.823,21.871,80,43,15.276,18.791,21.291,50.876,40,66h1q1-5.5,2-11,5,5,10,10c2.75,2.471,1.93.883,2,4h8c-1.45-4.455-2.05-7.8,2-10,2.33,1.333,4.67,2.667,7,4-0.84-30.805-25.73-53.475-39-74v-1a13.571,13.571,0,0,0,7-3c-0.67-1-1.33-2-2-3-6.7-1.749-16.271-7.885-20-13l34-1h-2l-18-10c1.75-2.817,2.17-2.568,3-7l-9-7v-1l15-2V382c10.71-.938,14.77-3.234,27,3l3-12,15,18,9-7c0.67,0.333,1.33.667,2,1q6.495,12.5,13,25c0.67-.333,1.33-0.667,2-1q0.495-15.5,1-31h4c1.02,7.2,4.17,20.966,9,25l3-12,16-1q4.005,18,8,36h3q5.505-7.5,11-15c17.91,5.3,15.01,40.964,9,61,23.84-.128,23.32-17.573,40-23,0.95,5.137,5.75,12.085,3,20q-7.995,12.5-16,25,0.495,27.5,1,55c8.45-5.309,12.84-11.871,25-11v7l-12,13c6.53,6.6,11.34,5.6,11,20-1.29,1.189-3.02,27.394-3,39h1q7.995-4,16-8v1q-5.505,15-11,30c1.33,1,2.67,2,4,3l3-2c2.56-5.064,7.96-11.393,13-14q1.995,7.5,4,15c0.67-.333,1.33-0.667,2-1q4.995-12.5,10-25,7.005,6,14,12c-0.29,15.184,2.59,29.049,9,38q4.995,5,10,10v12c4.09,10.836,23.6,16.574,35,20-0.67,2.333-1.33,4.667-2,7q4.005,3,8,6l-25,1,3,3c4.25,9.459,15.08,16.3,25,20-0.67.333-1.33,0.667-2,1-2.33.666-4.67,1.333-7,2,1.33,1.333,2.67,2.667,4,4,0.67,1.333,1.33,2.667,2,4v1h-9c-0.26,12.875,1.94,21.085,4,30l-13-2v3l9,13q-26.505-11-53-22v2c-1.64,3.684-.36,4.925-4,7,2.26,7.659,10.52,12.239,8,19q-4.005,2-8,4,7.995,10.5,16,21l-36-9v1c23.42,32.661,42.68,19.149,86,28q29.49,9.5,59,19c11.36-30.414,28.89-59,42-91q-5.505,3-11,6c10.15-25.757,51.96-61.632,76-75q13.005-4.5,26-9l-3-4-21-14,35,3c29.35-35.5,79.64-50.136,120-75q3-11,6-22h-1c-5.9,2.671-16.39,10.055-20,8q4.005-16.5,8-33h-1c-0.67.666-1.33,1.333-2,2-20.9,9.487-31.11,39.135-49,53v-2c-1.33-2.666-2.67-5.334-4-8,7.85-5.223,14.16-20.087,15-32-18.83,5.65-38.58,35.109-51,49h-3l-6-6c0.67-.667,1.33-1.333,2-2,7.9-13.171,21.4-17.717,23-38-0.33-.667-0.67-1.333-1-2h-6q-7.005,6-14,12c-2.74-3.139-.86-1.868-5-2-6.97,13.509-23.81,23.317-39,29-0.15-13.387,1.97-19.115,3-31h-1c-0.67.666-1.33,1.333-2,2q-13.995,13-28,26-3.495-3-7-6-4.995-6-10-12l-3,1c-3.08,7.605-4.65,17.238-6,28h-1c-0.52-6.211-2.59-11.621-6-15-0.33.667-.67,1.333-1,2-13.15,3.87-6.93,11.727-11,25-1.5,4.9-8.28,5.338-10,10-4.21,11.423-.75,29.084-3,39h-1c-1.82-13.567-16.88-25.906-29-29q-3.495,3-7,6,4.995-28,10-56v-1l-13,1,3-3q7.005-10.5,14-21c-0.33-.667-0.67-1.333-1-2-8.08.533-8.59,3.365-14,6q9.495-18,19-36-4.005-2.5-8-5c11.63-18.6,32.04-29.726,53-39-0.33-.667-0.67-1.334-1-2l-6-2c0.33-.667.67-1.334,1-2,24.45-.915,46.08-6.38,57-21l-54-1v-1c18.53-2.559,33.9-10.573,48-17-0.67-.333-1.33-0.667-2-1l-41-1v-1q14.505-5.5,29-11c-10.24-2.158-43.4-2.665-48-11,6.23-.558,22.35.31,28-4q-6.495-2.5-13-5c0.33-.667.67-1.333,1-2,34.34-1,83.52-12.113,120-2,31.96,8.859,56.48,28.263,85,33,18.92,3.143,33.11-5.394,47-8-0.33-.667-0.67-1.334-1-2-22.49-.976-46.85-3.7-63-11v-2l28-6c-1.39-1.923-.1-0.6-2-2q-10.005-6.5-20-13c0.33-.667.67-1.333,1-2,5.82,0.122,12.76-.411,16-3,2.89-3.152.82-12.422-1-17l-27,7v-1q2.505-5.5,5-11h-2l-18-1c-2.79,4.711-6.9,9.6-12,12-1.93-7.459-7.53-12.754-6-16,1.33-3.114,1.38-3.253,4-5-0.67-1.333-1.33-2.667-2-4-6.45-1.758-20.19-1.37-25-5q13.995-4,28-8v-6q-1.005-8.5-2-17l-18-9v-1c9.14,0.469,18.69.455,23-4-0.33-.667-0.67-1.334-1-2l-38-9c23.43,0.211,41.56,4.019,61-1v-4c-1.33-1.667-2.67-3.334-4-5-10.35-3.278-27.78-6.895-35-14q10.005,1,20,2v-4c-2.33-1.333-4.67-2.667-7-4,14.15-.193,26.18,1.429,37,3,13.23-18.084,27.98-45.78,47-58q4.995,3,10,6c2.04,7.155,5.7,16.744,13,19l6-16c0.67,0.333,1.33.667,2,1,0.72,15.684,7.49,23.467,14,33h1c0.67-.333,1.33-0.667,2-1,0.33-14.329-10.81-28.292-6-41l15,19c0.67-.333,1.33-0.667,2-1V218l3,2q10.995,21,22,42l3-2c2.26-14.873.08-26.456-8-36q2.505-5,5-10c-8.63-8.856-9.83-31.295-14-44,13.02,4.787,17.16,14.571,28,21h1q0.495-19.5,1-39,5.505,13.5,11,27h2c0.24-16.335,1.94-33.418-4-46-4.62-9.773-13.68-13.606-15-27l6-15,3,1c4.51,12.621,20.08,30.831,30,39,0.83-24.933-3.91-66.3,12-82q4.995,5,10,10c2.33,1,4.67,2,7,3-0.51,9.049-.36,24.353,6,27l3-21,7,1q4.5-13.5,9-27l3,2q4.995,9,10,18l3-2,3-7h1l3,22c0.67-.333,1.33-0.667,2-1q6.495-12.5,13-25c11.46,5.265,6.24,25.251,4,38,1.33-.667,2.67-1.333,4-2l21-16h1c0.24,6.362,1.45,12.674,6,15Zm20,29c-2.85,2.492-3.46,1.707-5,6h14c-1.32-3.827,0-2.08-3-4C1968.9,108.315,1969.02,108.451,1965,108Zm-45,26c-0.33.667-.67,1.333-1,2l7,1C1923.74,134.222,1924.89,134.588,1920,134Zm-24,32c0.67,1.666,1.33,3.333,2,5h3c0.33-1,.67-2,1-3-0.33-.667-0.67-1.334-1-2h-5Zm19,25-3,1v3c3.65-1.059,2.94-.814,5-3C1916.33,191.667,1915.67,191.333,1915,191Zm-255,46v0Zm35,35c-0.33,2.333-.67,4.667-1,7,0.67,0.667,1.33,1.333,2,2h1v-9h-2Zm-85,34c-2.33.666-4.67,1.333-7,2,1.28,5.431,3.64,8.512,9,10V306h-2Zm398,24v6l33,13c5.3-2.378,8.14-4.189,11-9v-1Zm-410,10c-1.84,2.069-2.82,2.133-6,3q-1.995,5.5-4,11h1c5.4-2.985,11.93-7.653,14-14h-5Zm598,14c-0.67,1.666-1.33,3.333-2,5h2c5.4,3.386,13.1,5.685,17,2-0.33-.667-0.67-1.333-1-2Q2204.005,356.5,2196,354Zm-237,7c2.16,2.206,2.89,2.206,6,1Zm31,5c-7.8,7.626-17.27,10.018-24,19,20.52,0.664,30.99-6.454,39-18v-1h-15Zm170,15v4h8c-0.67-1-1.33-2-2-3Zm-209,4-18,7v2c13.05,1.319,24.64.587,31-9h-13Zm149,21v4c4.31-.208,4.83-0.262,7-2C2104.67,407.333,2102.33,406.666,2100,406Zm-20,9c1.98,5.2,4.73,7.358,8,11h8c1.35-1.895,2.51-2.374,4-4Q2090,418.5,2080,415Zm-42,6c-1.33,1-2.67,2-4,3,0.33,0.666.67,1.333,1,2q5.505,2,11,4c-1.11-4.683-2.65-5.934-5-9h-3Zm39,13c-1.67,1.666-3.33,3.333-5,5,0.67,1,1.33,2,2,3q7.005,2,14,4c2.33-1.667,4.67-3.334,7-5-0.33-.667-0.67-1.334-1-2C2088.04,436.642,2085.78,434.28,2077,434Zm-211,3c-4.14,4.4-7.66,7.546-11,13h4l18-10c-0.67-1-1.33-2-2-3h-9Zm234,0-3,2c0.67,1,1.33,2,2,3l11,2c-0.67-.667-1.33-1.333-2-2C2105.88,438.489,2105.04,437.818,2100,437Zm-198,8c-6.31,3.1-9.99,3.453-12,11h11q1.995-5,4-10Zm-184,7c2.34,2.124-.11.441,3,1v-1h-3Zm-174,7c0.85,5.616,2.33,7.286,7,9v-3c-0.33-1-.67-2-1-3Zm101,7c4.08,8.816,49.85,29.721,61,35,0.67-.333,1.33-0.667,2-1,0.51-11.339.97-21.254-2-30Zm-116,2c-0.33.667-.67,1.333-1,2l6,5C1533,470.5,1532.83,469.756,1529,468Zm-470,4c0.33,0.666.67,1.333,1,2C1059.58,473.072,1060.8,473.324,1059,472Zm773,21c-2.33,1.333-4.67,2.667-7,4v9l3-1,9-11Zm35,2c-9.99,8.161-25.4,6.037-27,23h3c15.41-4.227,21.32-8.242,27-22Zm-707,7q-1.995,11-4,22c0.67-.333,1.33-0.667,2-1l6-9C1164.34,507.523,1164.23,504.178,1160,502Zm772,28c0.28,2.365-.22,1.247,1,4,7.33,3.3,13.7,5.854,25,6-0.33-1-.67-2-1-3C1949.02,533.512,1944.54,530.06,1932,530Zm63,12v0Zm30,3c-2.33.667-4.67,1.333-7,2v2c12.05,1.6,22.02,4.824,30-3Zm-354,17q-2.505,5-5,10c2.33,0.666,4.67,1.333,7,2,1.14-5.411,2.86-7.116,2-12h-4Zm-33,6c1.34,2.682,2.32,2.921,3,0h-3Zm-787,9q-0.5,2-1,4l8,4q1-2,2-4Zm844,3-3,1v2C1696.03,581.662,1694.25,582.186,1695,580Zm-35,3-6,7c-0.33,3.666-.67,7.334-1,11l4-1C1659.59,595.674,1667.4,588.225,1660,583Zm70,4-6,29h11l6-5,3-14C1741.08,590.751,1738.54,587.772,1730,587Zm-804,1c2.328,2.524,9.45,2.827,13,1Zm259,0c-7.69,9.471-16.78,11.152-17,29h1l10-3q4.995-12.5,10-25v-1h-4Zm520,0-12,19h6c6.71-1.994,9.46-3.035,13-8-0.33-1.667-.67-3.334-1-5C1709.28,590.351,1708.31,589.928,1705,588Zm-62,10q-2.505,7-5,14,7.005-5,14-10c-0.33-.667-0.67-1.333-1-2C1648.33,599.333,1645.67,598.666,1643,598Zm27,1c-1.33,2-2.67,4-4,6v1h11C1675.8,600.79,1675.09,600.263,1670,599Zm-793,3-1,1,2,2h5q0.5-1,1-2l-2-1h-5Zm62,0c3.956,12.029,12.5,26.506,27,28v-3C960.708,615.7,953.655,603.918,939,602Zm817,0c-0.33.666-.67,1.333-1,2h2C1756.67,603.333,1756.33,602.666,1756,602Zm330,1c-1.33,1-2.67,2-4,3l3,3v2c4.3-1.58,3.11-1.356,5-5C2088.67,605,2087.33,604,2086,603ZM846,607l-5,3q0.5,1.5,1,3l21,4q-0.5-1.5-1-3l-7-7h-9Zm-15,10v4c5.567-.24,6.062-0.013,8-4h-8Zm946,2c-5.46,4.335-14.07,7.182-17,14h7c1.67-1,3.33-2,5-3C1776.17,627.714,1779.33,621.933,1777,619Zm388,4-3,2c0.33,1,.67,2,1,3,1.33,1.666,2.67,3.333,4,5h2Q2167.005,628,2165,623ZM861,633v-6c-7.984-2.361-10.433-3.649-17,1v4Zm29-1q1,2,2,4l2-2Zm1245,14c-3.37,2.243-3.28.63-5,5l8-1v-1C2136.63,647.1,2137.03,647.363,2135,646Zm-175,2c-0.33.667-.67,1.333-1,2l3,4c0.67-.333,1.33-0.667,2-1v-4Zm301,36-3,1v3q4.005,3,8,6Q2263.5,689,2261,684Zm-614,17,11-2c-0.67-.667-1.33-1.333-2-2q-4.005-6-8-12h-4Zm93,2c-4.09,4.5-5.73,5.731-5,13l9,5c-0.33-1.667-.67-3.334-1-5,0.7-3.1.35-10.1-2-13h-1Zm243,0q-6.495,6.5-13,13c0.67,1,1.33,2,2,3,9.37-.342,14.54-1.884,14-13Zm-354,1c-0.33,3-.67,6-1,9-1.67,1.333-3.33,2.667-5,4-1.67-.333-3.33-0.667-5-1v6l3,2c2.34,2.124-.11.441,3,1q7.005-6.5,14-13c-0.33-1.667-.67-3.334-1-5C1634.33,706,1631.67,705,1629,704Zm318,0c0.17,4.659,1.72,7.152,4,12l3-2c-0.33-3.333-.67-6.667-1-10h-6Zm-267,1v5c2.41,1.751,1.67,1.028,3,4,1.33-.667,2.67-1.333,4-2C1684.99,708.358,1683.91,706.831,1680,705ZM594,708q-0.5,4-1,8h1q2.5-4,5-8h-5Zm447,11c-0.67.333-1.33,0.667-2,1,1.8,6.056,6.73,12.205,11,16,1.33-1,2.67-2,4-3v-1C1049.52,727.547,1046.59,722.426,1041,719Zm232,1c-0.67,1-1.33,2-2,3,1.67,2,3.33,4,5,6,2.21-2.063,1.88-1.382,3-5Zm172,230-8,1q0.495,9.5,1,19l-3-1q-7.005-16.5-14-33c-1.67.333-3.33,0.667-5,1-0.38,10.767-4.23,11.1-6,17-4.82,16.082,16.01,20.364,22,27-2.12,6.546-3.08,6.522,3,11q13.995,17.5,28,35c5.92,12.16-.14,16.58,4,31l9,21c-12.99,4.73-6.55,52.59-6,70-3.62-3.18-2.72-4.88-9-6-15.72,5.92-22.17,7.5-27,24h-2c6.85-33.88,5.02-63.21-10-88q-4.005,3-8,6h-1c0.34-9.99-1.01-19.14-7-23l-1-1c-5.04,1.06-12.01,7.25-13,5q-12.495-18.495-25-37h-1v1c2.74,9.14,1.31,19.39-1,28h-1c-5.17-13.36-40.72-59.984-52-68-0.51,27.57,12.14,33.65,17,53h-3c-11.95-5.91-37.6-51.976-43-66-0.67.333-1.33,0.667-2,1-0.37,16.015,4.14,25.41,9,36-3.33.67-6.67,1.33-10,2q-16.005-35-32-70h-1c-2.3,10.708,2.57,25.6,0,34a49.966,49.966,0,0,0-16-16c-1.95,27.267,17.71,37.99,32,52,32.14,31.51,48.05,82.69,94,100v2q-6.495,2.505-13,5c25.74,40.31,69.74,72.89,81,127l-13-13c0.11,32.63,35.66,106.21,12,131-0.03-9.67-3.74-18.43-11-21q-1.995,4.995-4,10c-2-.67-4-1.33-6-2q-5.505,13.5-11,27c-0.67-.33-1.33-0.67-2-1-0.06-4.54-.2-5.75-2-8h-1q-7.005,13.005-14,26l-2-2c2.99-7.04,5.52-29.8,2-38l-6,6-27,21q3.495-10.5,7-21c-2.33-.67-4.67-1.33-7-2q4.995-13.5,10-27h-5q-7.005,1.995-14,4-1.5-9.495-3-19c1.4-6.78,7.57-8.44,6-17q-6-1.995-12-4l6-6c2.91-5.92,25.13-38.49,11-54l-10-7v-13h-8q1.5-7.005,3-14h-7c-10.44,4.16-14.91,11.64-24,16q3.495-10.995,7-22c-2.67.33-5.33,0.67-8,1q5.505-9,11-18c-4.72-4.19-6.45-2.82-4-10v-1l-36-3q3.495-7.005,7-14c-12.08-8-10.37-10.54-16-26-2.33.33-4.67,0.67-7,1,0.33-1,.67-2,1-3q6.495-10.5,13-21l-17,3-9-15h-4c-2.33,1.67-4.67,3.33-7,5,20.88,102.88,65.14,235.93,34,353q-4.995,25.995-10,52h-1c-0.86-5.16-1.63-7.18-6-9q-5.505,6-11,12v-2c-1-1.67-2-3.33-3-5-0.67.33-1.33,0.67-2,1q-3.495,6-7,12c-2-1.33-4-2.67-6-4-5.95,5.77-12.22,13.31-23,14q-3-4.005-6-8l-20,6v-1q4.995-7.995,10-16c-2.94-1.98-3.76-5.6-5-9q-10.5-4.005-21-8c-5.47,4.28-8.95,6.93-19,7-0.58,58.34,5.87,122.14,16,175,6.01,31.37-6.84,63.7-2,93,4.45,26.95,10.8,47.32,18,72,12.17,41.68,6.9,92.02,38,114,11.04-9.41,16.96-25.58,24-39,20.9-39.82,39.58-82.87,62-123,22-39.38,44.1-79.6,66-120q21.495-52.995,43-106,46.995-94.485,94-189,33.495-63,67-126c10.48-16.77,27.68-37.33,24-61q-9.495-6-19-12h-1c-0.33,2.33-.67,4.67-1,7l-10-3c-13.06,7.46-4.24,16.27-8,29q-7.005-9-14-18c-0.67.33-1.33,0.67-2,1q-3.495,6-7,12c-0.33-.67-0.67-1.33-1-2-8.11-16.12-11.83-30.56-21-44-0.67,1.33-1.33,2.67-2,4-2.04,1.8-.71.02-2,3h-1c0.19-7.58-.3-23.12-4-28h-1c-1.67,2-3.33,4-5,6-1.17-59.5,18.7-110.29,33-157,27.27-89.107,58.08-175.866,106-245-1.89-6.443-4.83-9.984-9-14-9.91.876-8.62,6.226-13,12q-6.495-3.5-13-7,1.005,10.5,2,21c-4.64.3-5.05,0.833-8,2q-0.495,9-1,18c-7.58-.343-10.44.307-13,5-1.09,2.619-1.17,6.149-3,8-2.02,2.078-1,1.365-5,2-8.35-4.8-15.52-10.358-27-9-0.67,1-1.33,2-2,3-1.25,10.9.78,17.406,4,26l-8-1v13q-10.005-9-20-18c-5.07,7.9-5.55,7.394-15,9q1.005,6.5,2,13c-4.74,1.553-12.95,2.177-15,7,3.12,2.122,3.53,5.459,5,9-5.85,1.312-9.64,4.191-12,9-3.95,14.576,5.74,32.964,9,48-12.39,7.059-9.77,25.064-17,37q-8.505-8-17-16Zm569-227c-0.67.333-1.33,0.667-2,1v5c4.02-1.141,3.83-1.374,6-4v-1Zm-8,17v9h4v-3c-0.33-2-.67-4-1-6h-3ZM732,748l-3,3v1h3l2-2Zm1112,4c0.33,2,.67,4,1,6,7.08,5.852,9.76,7.819,22,7C1862.24,759,1851.19,755.323,1844,752Zm277,0c0.33,2,.67,4,1,6h1c0.67-.667,1.33-1.333,2-2A11.337,11.337,0,0,0,2121,752Zm-840,1c-0.89,5.516.25,7.312,2,12l10,4c-0.33-3-.67-6-1-9C1288.29,757.089,1286.31,754.633,1281,753Zm-662,5-6,2v2h5l3-1v-3h-2Zm1587,8c2.08,9.364,8.98,15.5,20,16C2222.01,772.181,2216.49,769.216,2206,766Zm-329,2v4h8c0.67-1.333,1.33-2.667,2-4h-10Zm-930,1q-0.5,2.5-1,5h2l20,4q0.5-2,1-4-0.5-1-1-2Zm87,4c2.15,17.411,11.05,22.021,20,32h3l3-4v-1Q1046.995,786.5,1034,773Zm836,15c-1.48,3.368-1.98,2.645-3,7,1.92,1.392.6,0.1,2,2l3-2c3.76-1.688,3.32-.593,1-4C1871.4,788.3,1872.66,789.622,1870,788Zm-800,6c0.42,5.223-.66,3.984,3,6Zm575,7c0.68,4.53.29,2.74,4,6,0.67-1.333,1.33-2.667,2-4h-2C1647.67,802.333,1646.33,801.667,1645,801Zm506,0v13c4.77-1.508,4.09-1.937,6-6-0.33-1.333-.67-2.667-1-4C2153.39,802.489,2154.25,802.292,2151,801Zm-126,8c-0.06,4.735.13,6.661,2,9,1.51,2.467,2.76,3.364,5,5,1.3-2.123,1.23-1.447,2-5C2031.45,814.386,2029.54,810.826,2025,809Zm-844,15v28l54-5v-1Q1208,835,1181,824Zm701,2,3,5h1c0.67-.333,1.33-0.667,2-1-0.33-1.333-.67-2.667-1-4h-5ZM651,846l-26,7v4q0.5,1,1,2h1l27-6v-5Zm267,17c-2.092,2.567-2.061,1.526-3,6l5-1q0.5-1,1-2Zm-322,1v3h4l2-1v-1l-1-1h-5Zm1190,2c-1.48,8.765-2.08,12.356,2,19l12,7q-1.005-8.5-2-17C1795.72,869.62,1792.27,867.339,1786,866Zm-159,2c3.39,10.326,7.11,16.48,14,23,0.67-.333,1.33-0.667,2-1v-7C1641.64,874.048,1635.08,870.075,1627,868ZM518,878l-5,3v1l8-1v-1Zm1709,0v16h3c0.67-.333,1.33-0.667,2-1v-1q-0.495-7-1-14h-4Zm-773,2c-0.67,1.333-1.33,2.667-2,4,2.67,1,5.33,2,8,3l-3-4C1455.64,880.945,1455.88,881.391,1454,880Zm761,1c-0.67,1-1.33,2-2,3,1.33,2.333,2.67,4.667,4,7h3c0.33-.667.67-1.333,1-2C2219.39,885.571,2218.53,882.784,2215,881Zm-893,2-6,5,3,3,6-5ZM879,900q-1,7-2,14l2,2c4.094-1.043,6.173-1.413,8-5C884.979,906.894,882.773,902.455,879,900Zm453,0v4h1c0.67-.667,1.33-1.334,2-2Zm303,0,3,11h4c0.33-.333.67-0.667,1-1-0.18-5.886-.48-6.644-4-9Zm-790,4q-0.5,3.5-1,7l4-1,2-3-2-3h-3Zm1186,1c-0.06,4.735.13,6.661,2,9,0.67-.333,1.33-0.667,2-1v-7Zm-892,9c-3.2,5.5-11.89,10.687-8,17,2.8,5.758,7.79,6.867,12,11,0.67-.333,1.33-0.667,2-1C1145.85,930.235,1147.91,917.569,1139,914Zm-226,4-4,8,3,2q2.5-4.5,5-9l-2-1h-2Zm-63,2-5,5,2,5v2h4C851.786,927.435,852.987,923.015,850,920Zm347,1c-0.3,4.254,1.73,6.766,4,11h3c0.33-.333.67-0.667,1-1v-3C1201.82,925.128,1201.6,922.8,1197,921Zm-98,5c-1.61,2.68-2.02,4.924-2,10,1.92,1.392.6,0.1,2,2l10,4Q1104.005,934,1099,926Zm66,2c-3.38,5.161-4.92,7.48-4,15,2.33,1.666,4.67,3.333,7,5,1.67-.667,3.33-1.334,5-2C1172.15,940.011,1169.16,931.041,1165,928Zm460,1q1.005,8.5,2,17c-0.33.333-.67,0.667-1,1l-9-3v1c5.15,17.008.74,37.569-5,49,0.66,6.47,4.8,15.19,2,22l-2-2c-6.72-2.54-7.52-9.38-12-14h-1q-3.495,8-7,16-0.495,13.995-1,28l-2-2q-5.505-3.495-11-7c4.3,14.95,7.78,29.12,5,45-7.95-5.45-15.84-19.24-19-29h-1c-0.38,18.01,9.01,28.21,18,37l1-1c0.33-2,.67-4,1-6,1,0.67,2,1.33,3,2l-3,15c-5.17-.95-6.5-2.4-10,0-5.63,19.37,8.12,26.75,14,40-5.86-3.51-11.71-6.84-20-8v1q6.495,11.505,13,23c-4.76-1.54-14.13-3.15-19-1l3,3q9.495,12,19,24v-2c15.51-6.43,19.39-30.47,27-45,26.48-50.6,40.36-78.11,30-156q1.005-18.5,2-37C1636.96,934.636,1633.57,931.141,1625,929ZM593,934l-6,15,5,1v-2C594.739,944.034,598.16,936.894,593,934Zm1701,1,2,2ZM606,940l-3,11c2.479-1.588,9.847-7.5,6-9C607.2,939.958,608.985,941.293,606,940Zm1291,0c2.05,2.1,1.76,1.635,6,2C1900.9,940.315,1901.02,940.451,1897,940ZM654,942v0Zm742,3v10l3,1h1V945h-4Zm-188,1-3,2c1.43,6.211,4.05,13.144,8,17l3-1q-1.995-9-4-18h-4Zm708,0c-0.67,2-1.33,4-2,6,4.35,0.87,7.97,4.167,10,1v-4C1921.33,948,1918.67,947,1916,946Zm-723,8c-0.33.666-.67,1.333-1,2,0.33,0.667.67,1.333,1,2h4v-4h-4Zm32,14h-5c0.67,2.666,1.33,5.334,2,8l3-1v-7Zm-628,1c-2.413,5.771-6.444,9.546-2,14h1l6-11Zm208,5q-0.5,1-1,2l2,2,5-4h-6Zm1162,4v3c0.67-.333,1.33-0.667,2-1C1968.33,979.333,1967.67,978.667,1967,978Zm9,24c1.8,2.04.02,0.71,3,2C1977.2,1001.96,1978.98,1003.29,1976,1002Zm-1015,3c2.164,2.21,2.889,2.21,6,1C965,1005.67,963,1005.33,961,1005Zm24,2c-0.219,3.33-.933,2.3,1,5,0.666-.67,1.333-1.33,2-2C986.627,1008.1,987.026,1008.36,985,1007Zm11,3v3h6v-3h-6Zm932,0v3h7v-3h-7Zm-35,5c-0.33,1-.67,2-1,3,1.33-.33,2.67-0.67,4-1-0.33-.67-0.67-1.33-1-2h-2Zm-782,1c-2.28,4.98-2.78,9.4,1,13,1-.67,2-1.33,3-2,0.67-3.33,1.33-6.67,2-10C1115,1016.67,1113,1016.33,1111,1016Zm-145,10c-1.243,4.74-1.463,2.76,1,7h3c1-1.33,2-2.67,3-4-1-.67-2-1.33-3-2C968.667,1026.67,967.333,1026.33,966,1026Zm1020,0c-0.67.33-1.33,0.67-2,1,0.67,1,1.33,2,2,3l2-2Zm-784,16-6,3c0.33,3.33.67,6.67,1,10h1c0.33-.67.67-1.33,1-2q4.005-4.995,8-10v-1h-5Zm-38,3c0.67,1.33,1.33,2.67,2,4,0.67-1.33,1.33-2.67,2-4h-4Zm-387,2-3,9h3c1-.67,2-1.33,3-2,0.667-1.33,1.333-2.67,2-4-0.333-.67-0.667-1.33-1-2C779.667,1047.67,778.333,1047.33,777,1047Zm1225,0v11c2.67,0.33,5.33.67,8,1-0.33-1-.67-2-1-3Q2005.505,1051.5,2002,1047Zm-1057,4c0.333,1.67.666,3.33,1,5h1v-5h-2Zm273,13c-2,.67-4,1.33-6,2v4c1,1.33,2,2.67,3,4h1C1216.67,1070.67,1217.33,1067.33,1218,1064Zm328,4c2.95,11.12,5.39,20.72,13,27h1v-12C1556.49,1076.43,1553.32,1070.83,1546,1068Zm-311,4c-3.72,6.77-9.74,4.27-15,9-0.67,3.33-1.33,6.67-2,10q10.5-7.995,21-16v-1C1237.67,1073.33,1236.33,1072.67,1235,1072Zm711,6c-1.67,1-3.33,2-5,3v3l1,1c7.52,0.89,17.38,5.1,25,2h-2C1960.46,1082,1955.39,1078.28,1946,1078Zm35,10c-3.33.67-6.67,1.33-10,2,0.33,1,.67,2,1,3,1.33,0.67,2.67,1.33,4,2,5.57-.98,6.71-1.59,8-7h-3Zm-296,18q7.995,18,16,36h2v-22Q1694,1112.995,1685,1106Zm87,0-3,3c0.33,1,.67,2,1,3,2.33,1.33,4.67,2.67,7,4v-1Q1774.5,1110.5,1772,1106Zm169,5v9h4c0.33-.67.67-1.33,1-2,0.33-2,.67-4,1-6l-1-1h-5Zm55,3c0.33,1.67.67,3.33,1,5,0.67-1.67,1.33-3.33,2-5h-3Zm-977,15q-5,8.505-10,17c0.33,0.67.67,1.33,1,2,10.08-.03,16.14-3.02,22-7,1.13-4.19,1.54-4.63,1-9Zm639,1v4h1l2-2C1660,1131.33,1659,1130.67,1658,1130Zm290,3c-1.04,5.05-2.66,6.26,0,10q5.505,7.5,11,15h1c1.89-9.13,5.09-22.39,3-25-1.33,2-2.67,4-4,6C1954.38,1136.36,1952.34,1133.61,1948,1133Zm-1072,4-5,6q6-.495,12-1h-2C879.388,1138.15,879.809,1138.64,876,1137Zm-54,4c1.392,1.92.1,0.6,2,2C823.333,1142.33,822.667,1141.67,822,1141Zm74,0c2.052,2.1,1.763,1.64,6,2C899.9,1141.32,900.025,1141.45,896,1141Zm284,0c-1,2.33-2,4.67-3,7,1,0.33,2,.67,3,1,1.33-2.33,2.67-4.67,4-7C1182.67,1141.67,1181.33,1141.33,1180,1141Zm599,14q3,11.505,6,23h1c0.67-1,1.33-2,2-3C1789.68,1165.11,1786.7,1158.26,1779,1155Zm182,4c1.29,7.16,5.68,10.76,9,16l-10,3c8.01,24.59,26.94,48.15,52,56v-4c-12.27-6.45-20.65-16.64-30-26l3-9q-7.005-9.495-14-19v-1q7.995,0.495,16,1v-1C1982.09,1166.6,1974.27,1159.17,1961,1159ZM774,1169c0.333,0.67.667,1.33,1,2C774.576,1170.07,775.8,1170.32,774,1169Zm115,2v3q0.5-1.5,1-3h-1Zm-127,7-7,9c0.667,0.33,1.333.67,2,1v2l10-9v-1C765.333,1179.33,763.666,1178.67,762,1178Zm82,3c-0.667.33-1.333,0.67-2,1,1.8,2.04.015,0.71,3,2Q844.5,1182.5,844,1181Zm1154,0c1.56,5.5,4.33,6.83,10,8v-2c0.33-1.33.67-2.67,1-4Q2003.5,1181.995,1998,1181Zm-71,10c-2.65,6.94-4.62,17.31,2,22C1929.36,1206.28,1930.31,1194.46,1927,1191Zm65,6c-0.67,1.33-1.33,2.67-2,4v3c7.5,4.59,13.66,8.84,25,5v-1Q2003.5,1202.495,1992,1197Zm-1112,9v3c0.667-.33,1.333-0.67,2-1C881.333,1207.33,880.667,1206.67,880,1206Zm298,3c-4.53,2.15-7.33,1.99-10,6q-0.495,6-1,12h3q7.995-9,16-18h-8Zm608,7c1.37,16.78,5.26,37.02,16,45C1802.51,1241.45,1797.83,1223.51,1786,1216Zm-1017,7c-0.333,1.67-.667,3.33-1,5q5.5,1.005,11,2c0.333-.33.667-0.67,1-1v-4Q774.5,1223.995,769,1223Zm18,3c3.177,4.71,19.207,16.71,28,8C806.342,1230.49,799.682,1226.44,787,1226Zm377,5c-1,2.67-2,5.33-3,8,4.76-1.38,4.85-2.28,7-6v-1C1166.67,1231.67,1165.33,1231.33,1164,1231Zm-417,6c-0.333.67-.667,1.33-1,2C748.059,1238.13,747.109,1239.02,747,1237Zm1257,11c1.35,3.4.61,2.07,3,4h1v-1C2006.67,1250,2005.33,1249,2004,1248Zm7,7c1.15,9.62,7.65,13.7,17,15v-10C2024.57,1254.86,2020.08,1254.49,2011,1255Zm-1212,3c-0.667.33-1.334,0.67-2,1,0.666,2.33,1.333,4.67,2,7h4C802.418,1261.37,802.25,1260.03,799,1258Zm374,111q3-18.495,6-37l-22,3v-1l2-2q4.005-6,8-12c-3.86-19.68,2.85-27.24,7-43-7.33-2.96-7.15-6.93-6-16-3.67.33-7.33,0.67-11,1-12.39,7.55-13.35,29.6-19,44q-10.995,24-22,48c-9.41,27.65.85,66.79,6,92q1.995,19.5,4,39c1.33-.33,2.67-0.67,4-1,9.67-1.32,26.54-8.13,33-14q-8.505-3-17-6c0.33-.67.67-1.33,1-2l14-11v-1c-5.23-.47-10.1-1.24-13-4q9.495-4.5,19-9,1.5-5.505,3-11c-2.97-3.87-5.15-5.9-6-12,0.67-1,1.33-2,2-3,13.02-2.35,24.19-7.4,28-19q-14.505,7.005-29,14c1.97-17.74,15.39-20.32,19-35l-2-2h-9ZM771,1267c2.21,2.15,1.939,1.98,5,1C774.333,1267.67,772.666,1267.33,771,1267Zm15,1-16,9v3q2,4.995,4,10c6.128-3.52,13.092-7.19,17-13C789.585,1272.84,788.9,1270.54,786,1268Zm-72,16c-0.333,1.67-.667,3.33-1,5,0.333,0.33.667,0.67,1,1h9q0.5-1.5,1-3Zm37,0q-6.5,2.505-13,5l14,9c-13.3,11.53-40.765-1.8-56,6,0.333,0.67.666,1.33,1,2q13,3.495,26,7c-0.334.67-.667,1.33-1,2-13.184.39-19.591,5.49-30,8,0.333,0.67.667,1.33,1,2,23.885,3.56,25.669-3.24,39-9q7-.495,14-1c12.886-4.43,15.439-14.11,21-26-1-.67-2-1.33-3-2Zm594,16c-2.33,1.33-4.67,2.67-7,4v2h6l3-6h-2Zm-677,35c-2.333,1.33-4.667,2.67-7,4q0.5,1.5,1,3c5.255,2.12,7.6,3.96,14,3q3-3.495,6-7c-1-.67-2-1.33-3-2C675.334,1335.67,671.666,1335.33,668,1335Zm302,2c-1.333.67-2.667,1.33-4,2,0.333,0.67.667,1.33,1,2,1.333-.33,2.667-0.67,4-1Q970.5,1338.5,970,1337Zm-280,1,3,1Zm697,10c0.81,4.95-.67,2.98,3,5v-5h-3Zm-450,23c-1.667,1.67-3.334,3.33-5,5l1,10h1c0.333-.67.667-1.33,1-2q4-6.495,8-13h-6Zm105,6c-3.22,1.89-4.9,1.91-7,5-2.25,2.93-2.8,4.59-3,10h1q10.995-7.5,22-15h-13Zm-124,21v0Zm280,12c-6.24,4.76-10.84,6.9-12,17q11.505-7.995,23-16v-1h-11Zm-283,3c-12.91,7.26-25.18,11-29,27h1c16.122-4.76,23.894-15.64,33-27h-5Z"/>
  <path id="Sun" class="cls-11" d="M1876.5,1293c161.5-2.65,320.13,102.95,370.5,261,28.7,90.06,18.84,186.58-20,273-105.16,13.92-208.18,28.73-313,45-108.58,16.86-214.84,34.62-323,54-62.24-72.84-100.45-162.25-98-256.5C1497.91,1480.1,1667.52,1296.43,1876.5,1293Z"/>
  <path id="Black_Wave_Swash" data-name="Black Wave Swash" class="cls-6" d="M688,1992c-2.242,12.01,86.782,42.54,179,61,126.53,25.32,280.13,18.98,322,14,182.4-21.69,408.14-52.9,520-75,117.12-23.14,248.16-48.67,341-62,127-18.24,253.22-30.83,381-38,121.46-6.81,246.87-8.4,379-5,49.07,1.26,97.76,3.24,146.42,5.95,64.16,3.57,127.43,8.21,187.58,14.05,140.66,13.66,235.15,31.44,237,23,1.72-7.85-78.23-32.27-125-45-102.72-27.97-218.57-46.32-281-50-200.47-11.82-373.19-29.83-568-23a4010.261,4010.261,0,0,0-460,43c-96.79,14.66-271.05,49.19-412,77-82.25,16.23-158.15,29.2-240,40-96.07,12.68-196.12,22.71-272,25C877.468,2001.39,690.66,1977.75,688,1992Z"/>
  <path id="Bird_1" data-name="Bird 1" class="cls-6" d="M1525,1456a130.225,130.225,0,0,1,66,12c29.58,14.04,52.32,38.85,65,69,37.98-28.73,73.92-42.32,105-33,24.61,7.38,47.6,34.62,48,35a66.775,66.775,0,0,0-12-21c-6.9-8.14-16.97-15.51-32-21-32.98-12.04-73.21-1.01-106,19a101.9,101.9,0,0,0-32-41c-8.66-6.54-24.14-14.6-44-19A136.014,136.014,0,0,0,1525,1456Z"/>
  <path id="Bird_2" data-name="Bird 2" class="cls-6" d="M2069,1462a69,69,0,0,1,39,16,67.829,67.829,0,0,1,17,22,134.559,134.559,0,0,1,38-7c30.82-1.11,66.72,13.99,72,16a123.009,123.009,0,0,0-83-23c-8.28.75-14.86,2.37-23,4a95.63,95.63,0,0,0-13-13c-8.18-6.72-17.37-11.53-22-13A56.333,56.333,0,0,0,2069,1462Z"/>
  <path id="Bird_3v" data-name="Bird 3v" class="cls-6" d="M1487,1564a139.7,139.7,0,0,1,65,15,136.258,136.258,0,0,1,28,19,60.113,60.113,0,0,1,19-14c13.76-6.41,29.31-7.15,44-3a55.957,55.957,0,0,0-28-6,62.507,62.507,0,0,0-18,4c-6.19,2.27-16,8-16,8a97.545,97.545,0,0,0-24-15,107.127,107.127,0,0,0-24-7A153.794,153.794,0,0,0,1487,1564Z"/>
</svg>
